<?xml version="1.0" encoding="utf-8"?>
<!-- Generator: Adobe Illustrator 27.7.0, SVG Export Plug-In . SVG Version: 6.00 Build 0)  -->
<svg version="1.1" id="Layer_1" xmlns="http://www.w3.org/2000/svg" xmlns:xlink="http://www.w3.org/1999/xlink" x="0px" y="0px"
	 viewBox="0 0 800 228" style="enable-background:new 0 0 800 228;" xml:space="preserve">
<rect x="683.68" y="77.27" style="fill:#231F20;" width="115.57" height="42.87"/>
<g>
	<path style="fill:#231F20;" d="M0.25,26.36c0-2.11,1.05-3.16,3.16-3.16h10.83c1.37,0,2.41,0.41,3.12,1.23
		c0.71,0.82,1.2,1.89,1.46,3.2l1.66,9.41c4.01-4.48,8.68-8.04,14.04-10.67c5.35-2.64,11.06-3.95,17.12-3.95
		c6.43,0,12.53,1.19,18.31,3.56S80.8,31.68,85.18,36c4.38,4.32,7.84,9.49,10.4,15.5c2.56,6.01,3.83,12.65,3.83,19.93
		c0,6.85-1.19,13.31-3.56,19.37c-2.37,6.06-5.68,11.35-9.92,15.85c-4.24,4.51-9.29,8.07-15.14,10.68s-12.26,3.91-19.21,3.91
		c-6.06,0-11.65-1.17-16.76-3.52s-9.57-5.55-13.36-9.61v38.04c0,2.11-1,3.16-3,3.16H3.41c-2.11,0-3.16-1.05-3.16-3.16V26.36z
		 M22.67,82.42c1.34,3.59,3.27,6.8,5.77,9.65c2.5,2.85,5.52,5.15,9.05,6.92c3.53,1.77,7.48,2.65,11.86,2.65
		c4.27,0,8.16-0.78,11.66-2.33c3.5-1.55,6.51-3.69,9.01-6.4c2.5-2.71,4.44-5.9,5.81-9.57c1.37-3.66,2.06-7.58,2.06-11.74
		c0-4.16-0.66-8.04-1.98-11.62c-1.32-3.58-3.2-6.69-5.65-9.33c-2.45-2.64-5.44-4.71-8.98-6.21c-3.53-1.5-7.49-2.25-11.86-2.25
		c-4.38,0-8.34,0.86-11.9,2.57c-3.56,1.71-6.59,3.95-9.09,6.72c-2.5,2.77-4.43,5.92-5.77,9.45c-1.34,3.53-2.02,7.09-2.02,10.67
		C20.65,75.23,21.33,78.84,22.67,82.42z"/>
	<path style="fill:#231F20;" d="M180.94,26.44c0-2.16,1.08-3.24,3.24-3.24h15.74c2.11,0,3.16,1.08,3.16,3.24v90.46
		c0,2.16-1.06,3.24-3.16,3.24h-10.12c-1.05,0-2-0.37-2.85-1.11c-0.84-0.74-1.37-1.63-1.58-2.69l-2.13-9.41
		c-3.48,5.01-7.63,8.61-12.46,10.79c-4.82,2.19-10.11,3.28-15.85,3.28c-4.11,0-8.38-0.7-12.81-2.1c-4.43-1.4-8.49-3.69-12.18-6.88
		c-3.69-3.19-6.72-7.41-9.09-12.65c-2.37-5.24-3.56-11.72-3.56-19.41V26.44c0-2.16,1.03-3.24,3.08-3.24h15.34
		c2.11,0,3.16,1.08,3.16,3.24V79.5c0.1,3.11,0.7,5.96,1.78,8.54c1.08,2.58,2.57,4.81,4.47,6.68c1.9,1.87,4.16,3.33,6.8,4.39
		c2.64,1.05,5.59,1.58,8.86,1.58c1.63,0,3.6-0.38,5.89-1.15c2.29-0.76,4.49-2.06,6.6-3.87c2.11-1.82,3.91-4.23,5.42-7.24
		c1.5-3,2.25-6.77,2.25-11.31V26.44z"/>
	<path style="fill:#231F20;" d="M249.97,23.83h11.23c1,0,1.79,0.26,2.37,0.79c0.58,0.53,0.87,1.37,0.87,2.53v12.57
		c0,1.06-0.34,1.87-1.03,2.45c-0.69,0.58-1.53,0.87-2.53,0.87h-10.91v47.29c0,1.53,0.12,2.97,0.36,4.31s0.66,2.53,1.26,3.56
		c0.61,1.03,1.44,1.86,2.49,2.49c1.05,0.63,2.42,1,4.11,1.11l2.45,0.16c1,0.05,1.77,0.25,2.29,0.59c0.53,0.34,0.91,0.74,1.15,1.19
		c0.24,0.45,0.37,0.9,0.4,1.34c0.03,0.45,0.04,0.8,0.04,1.07v10.75c0,0.26-0.04,0.62-0.12,1.07c-0.08,0.45-0.32,0.87-0.71,1.27
		s-0.99,0.74-1.78,1.03s-1.87,0.43-3.24,0.43c-4.43,0-8.51-0.64-12.26-1.94c-3.74-1.29-6.96-3.14-9.65-5.54
		c-2.69-2.4-4.78-5.34-6.29-8.82c-1.5-3.48-2.25-7.41-2.25-11.78V43.04h-8.78c-0.74,0-1.48-0.28-2.21-0.83
		c-0.74-0.55-1.11-1.38-1.11-2.49V27.39c0-1.21,0.36-2.11,1.07-2.69c0.71-0.58,1.46-0.87,2.25-0.87h8.78V7.93
		c0-1.05,0.21-1.84,0.63-2.37c0.42-0.53,1.24-0.95,2.45-1.27l15.5-4.51c0.42-0.1,0.71-0.16,0.87-0.16c0.79,0,1.37,0.33,1.74,0.99
		c0.37,0.66,0.55,1.46,0.55,2.41V23.83z"/>
	<path style="fill:#231F20;" d="M307.22,23.83h11.23c1,0,1.79,0.26,2.37,0.79c0.58,0.53,0.87,1.37,0.87,2.53v12.57
		c0,1.06-0.34,1.87-1.03,2.45c-0.69,0.58-1.53,0.87-2.53,0.87h-10.91v47.29c0,1.53,0.12,2.97,0.36,4.31s0.66,2.53,1.26,3.56
		c0.61,1.03,1.44,1.86,2.49,2.49c1.05,0.63,2.42,1,4.11,1.11l2.45,0.16c1,0.05,1.77,0.25,2.29,0.59c0.53,0.34,0.91,0.74,1.15,1.19
		c0.24,0.45,0.37,0.9,0.4,1.34c0.03,0.45,0.04,0.8,0.04,1.07v10.75c0,0.26-0.04,0.62-0.12,1.07c-0.08,0.45-0.32,0.87-0.71,1.27
		s-0.99,0.74-1.78,1.03s-1.87,0.43-3.24,0.43c-4.43,0-8.51-0.64-12.26-1.94c-3.74-1.29-6.96-3.14-9.65-5.54
		c-2.69-2.4-4.78-5.34-6.29-8.82c-1.5-3.48-2.25-7.41-2.25-11.78V43.04h-8.78c-0.74,0-1.48-0.28-2.21-0.83
		c-0.74-0.55-1.11-1.38-1.11-2.49V27.39c0-1.21,0.36-2.11,1.07-2.69c0.71-0.58,1.46-0.87,2.25-0.87h8.78V7.93
		c0-1.05,0.21-1.84,0.63-2.37c0.42-0.53,1.24-0.95,2.45-1.27l15.5-4.51c0.42-0.1,0.71-0.16,0.87-0.16c0.79,0,1.37,0.33,1.74,0.99
		c0.37,0.66,0.55,1.46,0.55,2.41V23.83z"/>
	<path style="fill:#231F20;" d="M338.06,26.36c0-2.11,1.05-3.16,3.16-3.16h10.83c1.37,0,2.41,0.41,3.12,1.23
		c0.71,0.82,1.2,1.89,1.46,3.2l1.66,9.41c4.01-4.48,8.68-8.04,14.04-10.67c5.35-2.64,11.06-3.95,17.12-3.95
		c6.43,0,12.53,1.19,18.31,3.56s10.85,5.72,15.22,10.04c4.38,4.32,7.84,9.49,10.4,15.5c2.56,6.01,3.83,12.65,3.83,19.93
		c0,6.85-1.19,13.31-3.56,19.37c-2.37,6.06-5.68,11.35-9.92,15.85c-4.24,4.51-9.29,8.07-15.14,10.68s-12.26,3.91-19.21,3.91
		c-6.06,0-11.65-1.17-16.76-3.52s-9.57-5.55-13.36-9.61v38.04c0,2.11-1,3.16-3,3.16h-15.02c-2.11,0-3.16-1.05-3.16-3.16V26.36z
		 M360.47,82.42c1.34,3.59,3.27,6.8,5.77,9.65c2.5,2.85,5.52,5.15,9.05,6.92c3.53,1.77,7.48,2.65,11.86,2.65
		c4.27,0,8.16-0.78,11.66-2.33c3.5-1.55,6.51-3.69,9.01-6.4c2.5-2.71,4.44-5.9,5.81-9.57c1.37-3.66,2.06-7.58,2.06-11.74
		c0-4.16-0.66-8.04-1.98-11.62c-1.32-3.58-3.2-6.69-5.65-9.33c-2.45-2.64-5.44-4.71-8.98-6.21c-3.53-1.5-7.49-2.25-11.86-2.25
		c-4.38,0-8.34,0.86-11.9,2.57c-3.56,1.71-6.59,3.95-9.09,6.72c-2.5,2.77-4.43,5.92-5.77,9.45c-1.34,3.53-2.02,7.09-2.02,10.67
		C358.46,75.23,359.13,78.84,360.47,82.42z"/>
	<path style="fill:#231F20;" d="M518.74,26.44c0-2.16,1.08-3.24,3.24-3.24h15.74c2.11,0,3.16,1.08,3.16,3.24v90.46
		c0,2.16-1.06,3.24-3.16,3.24H527.6c-1.05,0-2-0.37-2.85-1.11c-0.84-0.74-1.37-1.63-1.58-2.69l-2.13-9.41
		c-3.48,5.01-7.63,8.61-12.46,10.79c-4.82,2.19-10.11,3.28-15.85,3.28c-4.11,0-8.38-0.7-12.81-2.1c-4.43-1.4-8.49-3.69-12.18-6.88
		c-3.69-3.19-6.72-7.41-9.09-12.65c-2.37-5.24-3.56-11.72-3.56-19.41V26.44c0-2.16,1.03-3.24,3.08-3.24h15.34
		c2.11,0,3.16,1.08,3.16,3.24V79.5c0.1,3.11,0.7,5.96,1.78,8.54c1.08,2.58,2.57,4.81,4.47,6.68c1.9,1.87,4.16,3.33,6.8,4.39
		c2.64,1.05,5.59,1.58,8.86,1.58c1.63,0,3.6-0.38,5.89-1.15c2.29-0.76,4.49-2.06,6.6-3.87c2.11-1.82,3.91-4.23,5.42-7.24
		c1.5-3,2.25-6.77,2.25-11.31V26.44z"/>
	<path style="fill:#231F20;" d="M587.77,23.83H599c1,0,1.79,0.26,2.37,0.79c0.58,0.53,0.87,1.37,0.87,2.53v12.57
		c0,1.06-0.34,1.87-1.03,2.45c-0.69,0.58-1.53,0.87-2.53,0.87h-10.91v47.29c0,1.53,0.12,2.97,0.36,4.31s0.66,2.53,1.26,3.56
		c0.61,1.03,1.44,1.86,2.49,2.49c1.05,0.63,2.42,1,4.11,1.11l2.45,0.16c1,0.05,1.77,0.25,2.29,0.59c0.53,0.34,0.91,0.74,1.15,1.19
		c0.24,0.45,0.37,0.9,0.4,1.34c0.03,0.45,0.04,0.8,0.04,1.07v10.75c0,0.26-0.04,0.62-0.12,1.07c-0.08,0.45-0.32,0.87-0.71,1.27
		s-0.99,0.74-1.78,1.03s-1.87,0.43-3.24,0.43c-4.43,0-8.51-0.64-12.26-1.94c-3.74-1.29-6.96-3.14-9.65-5.54
		c-2.69-2.4-4.78-5.34-6.29-8.82c-1.5-3.48-2.25-7.41-2.25-11.78V43.04h-8.78c-0.74,0-1.48-0.28-2.21-0.83
		c-0.74-0.55-1.11-1.38-1.11-2.49V27.39c0-1.21,0.36-2.11,1.07-2.69c0.71-0.58,1.46-0.87,2.25-0.87h8.78V7.93
		c0-1.05,0.21-1.84,0.63-2.37c0.42-0.53,1.24-0.95,2.45-1.27l15.5-4.51c0.42-0.1,0.71-0.16,0.87-0.16c0.79,0,1.37,0.33,1.74,0.99
		c0.37,0.66,0.55,1.46,0.55,2.41V23.83z"/>
	<path style="fill:#231F20;" d="M645.02,23.83h11.23c1,0,1.79,0.26,2.37,0.79c0.58,0.53,0.87,1.37,0.87,2.53v12.57
		c0,1.06-0.34,1.87-1.03,2.45c-0.69,0.58-1.53,0.87-2.53,0.87h-10.91v47.29c0,1.53,0.12,2.97,0.36,4.31s0.66,2.53,1.26,3.56
		c0.61,1.03,1.44,1.86,2.49,2.49c1.05,0.63,2.42,1,4.11,1.11l2.45,0.16c1,0.05,1.77,0.25,2.29,0.59c0.53,0.34,0.91,0.74,1.15,1.19
		c0.24,0.45,0.37,0.9,0.4,1.34c0.03,0.45,0.04,0.8,0.04,1.07v10.75c0,0.26-0.04,0.62-0.12,1.07c-0.08,0.45-0.32,0.87-0.71,1.27
		s-0.99,0.74-1.78,1.03s-1.87,0.43-3.24,0.43c-4.43,0-8.51-0.64-12.26-1.94c-3.74-1.29-6.96-3.14-9.65-5.54
		c-2.69-2.4-4.78-5.34-6.29-8.82c-1.5-3.48-2.25-7.41-2.25-11.78V43.04h-8.78c-0.74,0-1.48-0.28-2.21-0.83
		c-0.74-0.55-1.11-1.38-1.11-2.49V27.39c0-1.21,0.36-2.11,1.07-2.69c0.71-0.58,1.46-0.87,2.25-0.87h8.78V7.93
		c0-1.05,0.21-1.84,0.63-2.37c0.42-0.53,1.24-0.95,2.45-1.27l15.5-4.51c0.42-0.1,0.71-0.16,0.87-0.16c0.79,0,1.37,0.33,1.74,0.99
		c0.37,0.66,0.55,1.46,0.55,2.41V23.83z"/>
</g>
<g>
	<path style="fill:#231F20;" d="M158.61,183.03h3.93c0.35,0,0.63,0.09,0.83,0.28c0.2,0.18,0.3,0.48,0.3,0.89v4.4
		c0,0.37-0.12,0.66-0.36,0.86c-0.24,0.2-0.54,0.3-0.89,0.3h-3.82v16.55c0,0.54,0.04,1.04,0.12,1.51c0.08,0.47,0.23,0.89,0.44,1.25
		c0.21,0.36,0.5,0.65,0.87,0.87c0.37,0.22,0.85,0.35,1.44,0.39l0.86,0.06c0.35,0.02,0.62,0.09,0.8,0.21
		c0.18,0.12,0.32,0.26,0.4,0.42c0.08,0.16,0.13,0.31,0.14,0.47c0.01,0.16,0.01,0.28,0.01,0.37v3.76c0,0.09-0.01,0.22-0.04,0.37
		c-0.03,0.16-0.11,0.3-0.25,0.44s-0.35,0.26-0.62,0.36c-0.28,0.1-0.65,0.15-1.13,0.15c-1.55,0-2.98-0.23-4.29-0.68
		c-1.31-0.45-2.44-1.1-3.38-1.94c-0.94-0.84-1.67-1.87-2.2-3.09c-0.53-1.22-0.79-2.59-0.79-4.12v-17.35h-3.07
		c-0.26,0-0.52-0.1-0.78-0.29c-0.26-0.19-0.39-0.48-0.39-0.87v-4.32c0-0.42,0.12-0.74,0.37-0.94s0.51-0.3,0.79-0.3H151v-5.56
		c0-0.37,0.07-0.65,0.22-0.83c0.15-0.18,0.43-0.33,0.86-0.44l5.42-1.58c0.15-0.04,0.25-0.06,0.3-0.06c0.28,0,0.48,0.12,0.61,0.35
		c0.13,0.23,0.19,0.51,0.19,0.84V183.03z"/>
	<path style="fill:#231F20;" d="M191.32,198.67c0-1.24-0.14-2.39-0.42-3.46c-0.28-1.07-0.71-2-1.29-2.8
		c-0.58-0.79-1.31-1.42-2.2-1.88c-0.89-0.46-1.93-0.69-3.13-0.69c-1,0-1.93,0.19-2.81,0.58c-0.88,0.39-1.64,0.94-2.28,1.65
		c-0.65,0.71-1.15,1.58-1.52,2.6c-0.37,1.02-0.55,2.17-0.55,3.45v17.46c0,0.35-0.09,0.63-0.28,0.84c-0.18,0.21-0.46,0.32-0.83,0.32
		h-5.51c-0.74,0-1.11-0.39-1.11-1.16v-41.46c0-0.78,0.37-1.16,1.11-1.16h5.51c0.35,0,0.62,0.11,0.82,0.33
		c0.19,0.22,0.29,0.5,0.29,0.83v12.65c1.16-1.25,2.49-2.25,3.97-2.99c1.49-0.74,3.12-1.11,4.91-1.11c1.7,0,3.2,0.23,4.5,0.69
		c1.3,0.46,2.44,1.08,3.4,1.85c0.97,0.77,1.78,1.68,2.42,2.71s1.17,2.13,1.56,3.28c0.4,1.15,0.68,2.33,0.86,3.53
		c0.17,1.2,0.26,2.35,0.26,3.46v17.38c0,0.35-0.09,0.63-0.28,0.84c-0.18,0.21-0.46,0.32-0.83,0.32h-5.51
		c-0.72,0-1.08-0.39-1.08-1.16V198.67z"/>
	<path style="fill:#231F20;" d="M230.56,207.19c0.11,0,0.22,0.02,0.33,0.07s0.21,0.13,0.3,0.26l2.71,3.32
		c0.46,0.61,0.43,1.14-0.08,1.6c-2.01,1.75-4,3.01-5.96,3.76c-1.96,0.76-4.05,1.13-6.27,1.13c-2.33,0-4.54-0.46-6.63-1.37
		c-2.09-0.91-3.94-2.16-5.54-3.74c-1.6-1.58-2.86-3.42-3.8-5.52c-0.94-2.1-1.41-4.35-1.41-6.75s0.43-4.65,1.29-6.77
		c0.86-2.11,2.05-3.96,3.57-5.55s3.33-2.84,5.44-3.76c2.1-0.92,4.4-1.38,6.89-1.38c1.24,0,2.5,0.15,3.81,0.46s2.57,0.77,3.82,1.38
		s2.42,1.4,3.53,2.34c1.11,0.94,2.07,2.06,2.89,3.35c0.82,1.29,1.48,2.76,1.96,4.41c0.49,1.65,0.73,3.49,0.73,5.52
		c0,0.59-0.04,1.06-0.11,1.41c-0.07,0.35-0.21,0.62-0.42,0.82c-0.2,0.19-0.48,0.32-0.83,0.39c-0.35,0.07-0.8,0.1-1.36,0.1h-23.8
		c0.28,1.2,0.73,2.29,1.36,3.28c0.63,0.99,1.38,1.83,2.26,2.52c0.88,0.69,1.86,1.23,2.95,1.6c1.09,0.38,2.24,0.57,3.46,0.57
		c1.16,0,2.16-0.1,2.99-0.3c0.83-0.2,1.55-0.46,2.17-0.79s1.16-0.67,1.63-1.05s0.94-0.73,1.4-1.07
		C230.08,207.27,230.32,207.19,230.56,207.19z M218.27,189.55c-1,0.38-1.91,0.9-2.73,1.56c-0.82,0.66-1.54,1.44-2.16,2.33
		s-1.1,1.84-1.45,2.85h18.96c-0.39-1.07-0.89-2.05-1.51-2.95c-0.62-0.9-1.33-1.67-2.13-2.31c-0.8-0.65-1.69-1.15-2.67-1.51
		c-0.98-0.36-2.02-0.54-3.13-0.54C220.33,188.98,219.27,189.17,218.27,189.55z"/>
	<path style="fill:#231F20;" d="M263.22,192.8h-4.15c-0.26,0-0.48-0.08-0.66-0.25s-0.28-0.41-0.28-0.72v-4.76
		c0-0.31,0.09-0.55,0.28-0.71c0.18-0.16,0.41-0.24,0.66-0.24h4.15V183c0-1.55,0.22-3.04,0.65-4.48c0.43-1.44,1.11-2.71,2.02-3.82
		c0.91-1.11,2.08-1.99,3.49-2.66c1.41-0.66,3.1-1,5.08-1c0.63,0,1.03,0.11,1.2,0.33c0.17,0.22,0.26,0.55,0.26,1v4.68
		c0,0.44-0.12,0.76-0.35,0.95c-0.23,0.19-0.59,0.29-1.09,0.29c-0.76,0-1.37,0.12-1.84,0.36c-0.47,0.24-0.84,0.6-1.11,1.07
		c-0.27,0.47-0.45,1.06-0.54,1.77c-0.09,0.71-0.14,1.54-0.14,2.48v2.16h4.1c0.63,0,0.94,0.31,0.94,0.94v4.76
		c0,0.65-0.31,0.97-0.94,0.97h-4.1v22.89c0,0.7-0.34,1.05-1.02,1.05h-5.56c-0.7,0-1.05-0.35-1.05-1.05V192.8z"/>
	<path style="fill:#231F20;" d="M303.49,183.94c0-0.76,0.38-1.13,1.13-1.13h5.51c0.74,0,1.11,0.38,1.11,1.13v31.66
		c0,0.76-0.37,1.13-1.11,1.13h-3.54c-0.37,0-0.7-0.13-1-0.39c-0.29-0.26-0.48-0.57-0.55-0.94l-0.75-3.29
		c-1.22,1.75-2.67,3.01-4.36,3.78c-1.69,0.77-3.54,1.15-5.55,1.15c-1.44,0-2.93-0.25-4.48-0.73c-1.55-0.49-2.97-1.29-4.26-2.41
		c-1.29-1.12-2.35-2.59-3.18-4.43s-1.25-4.1-1.25-6.79v-18.74c0-0.76,0.36-1.13,1.08-1.13h5.37c0.74,0,1.11,0.38,1.11,1.13v18.57
		c0.04,1.09,0.25,2.09,0.62,2.99c0.38,0.9,0.9,1.68,1.56,2.34s1.46,1.17,2.38,1.54s1.96,0.55,3.1,0.55c0.57,0,1.26-0.13,2.06-0.4
		c0.8-0.27,1.57-0.72,2.31-1.36s1.37-1.48,1.9-2.53c0.53-1.05,0.79-2.37,0.79-3.96V183.94z"/>
	<path style="fill:#231F20;" d="M327.65,183.03h3.93c0.35,0,0.63,0.09,0.83,0.28c0.2,0.18,0.3,0.48,0.3,0.89v4.4
		c0,0.37-0.12,0.66-0.36,0.86c-0.24,0.2-0.54,0.3-0.89,0.3h-3.82v16.55c0,0.54,0.04,1.04,0.12,1.51c0.08,0.47,0.23,0.89,0.44,1.25
		c0.21,0.36,0.5,0.65,0.87,0.87c0.37,0.22,0.85,0.35,1.44,0.39l0.86,0.06c0.35,0.02,0.62,0.09,0.8,0.21
		c0.18,0.12,0.32,0.26,0.4,0.42c0.08,0.16,0.13,0.31,0.14,0.47c0.01,0.16,0.01,0.28,0.01,0.37v3.76c0,0.09-0.01,0.22-0.04,0.37
		c-0.03,0.16-0.11,0.3-0.25,0.44s-0.35,0.26-0.62,0.36c-0.28,0.1-0.65,0.15-1.13,0.15c-1.55,0-2.98-0.23-4.29-0.68
		c-1.31-0.45-2.44-1.1-3.38-1.94c-0.94-0.84-1.67-1.87-2.2-3.09c-0.53-1.22-0.79-2.59-0.79-4.12v-17.35h-3.07
		c-0.26,0-0.52-0.1-0.78-0.29c-0.26-0.19-0.39-0.48-0.39-0.87v-4.32c0-0.42,0.12-0.74,0.37-0.94s0.51-0.3,0.79-0.3h3.07v-5.56
		c0-0.37,0.07-0.65,0.22-0.83c0.15-0.18,0.43-0.33,0.86-0.44l5.42-1.58c0.15-0.04,0.25-0.06,0.3-0.06c0.28,0,0.48,0.12,0.61,0.35
		c0.13,0.23,0.19,0.51,0.19,0.84V183.03z"/>
	<path style="fill:#231F20;" d="M360.72,183.94c0-0.76,0.38-1.13,1.13-1.13h5.51c0.74,0,1.11,0.38,1.11,1.13v31.66
		c0,0.76-0.37,1.13-1.11,1.13h-3.54c-0.37,0-0.7-0.13-1-0.39c-0.29-0.26-0.48-0.57-0.55-0.94l-0.75-3.29
		c-1.22,1.75-2.67,3.01-4.36,3.78c-1.69,0.77-3.54,1.15-5.55,1.15c-1.44,0-2.93-0.25-4.48-0.73c-1.55-0.49-2.97-1.29-4.26-2.41
		c-1.29-1.12-2.35-2.59-3.18-4.43s-1.25-4.1-1.25-6.79v-18.74c0-0.76,0.36-1.13,1.08-1.13h5.37c0.74,0,1.11,0.38,1.11,1.13v18.57
		c0.04,1.09,0.25,2.09,0.62,2.99c0.38,0.9,0.9,1.68,1.56,2.34s1.46,1.17,2.38,1.54s1.96,0.55,3.1,0.55c0.57,0,1.26-0.13,2.06-0.4
		c0.8-0.27,1.57-0.72,2.31-1.36s1.37-1.48,1.9-2.53c0.53-1.05,0.79-2.37,0.79-3.96V183.94z"/>
	<path style="fill:#231F20;" d="M375.58,183.97c0-0.76,0.35-1.13,1.05-1.13h3.82c0.37,0,0.71,0.06,1.01,0.18s0.51,0.47,0.62,1.07
		l0.53,2.91c0.89-1.42,2.02-2.53,3.4-3.33c1.38-0.8,2.92-1.2,4.62-1.2c1.05,0,2.05,0.15,3,0.44c0.95,0.3,1.82,0.64,2.6,1.04
		c0.78,0.4,1.46,0.8,2.02,1.22c0.56,0.42,0.98,0.75,1.26,1.01c0.41,0.37,0.61,0.7,0.61,0.98c0,0.29-0.1,0.57-0.3,0.84l-2.49,3.51
		c-0.18,0.29-0.42,0.44-0.72,0.44c-0.24,0-0.52-0.11-0.83-0.33c-0.35-0.26-0.74-0.51-1.16-0.76c-0.42-0.25-0.89-0.48-1.38-0.69
		c-0.5-0.21-1.03-0.38-1.61-0.51c-0.57-0.13-1.18-0.19-1.83-0.19c-0.81,0-1.62,0.15-2.41,0.44c-0.79,0.3-1.5,0.76-2.13,1.38
		c-0.63,0.63-1.13,1.42-1.52,2.37c-0.39,0.95-0.58,2.09-0.58,3.42v18.57c0.04,0.74-0.32,1.11-1.08,1.11h-5.45
		c-0.7,0-1.05-0.37-1.05-1.11V183.97z"/>
	<path style="fill:#231F20;" d="M426.34,207.19c0.11,0,0.22,0.02,0.33,0.07s0.21,0.13,0.3,0.26l2.71,3.32
		c0.46,0.61,0.43,1.14-0.08,1.6c-2.01,1.75-4,3.01-5.96,3.76c-1.96,0.76-4.05,1.13-6.27,1.13c-2.33,0-4.54-0.46-6.63-1.37
		c-2.09-0.91-3.94-2.16-5.54-3.74c-1.6-1.58-2.86-3.42-3.8-5.52c-0.94-2.1-1.41-4.35-1.41-6.75s0.43-4.65,1.29-6.77
		c0.86-2.11,2.05-3.96,3.57-5.55s3.33-2.84,5.44-3.76c2.1-0.92,4.4-1.38,6.89-1.38c1.24,0,2.5,0.15,3.81,0.46s2.57,0.77,3.82,1.38
		s2.42,1.4,3.53,2.34c1.11,0.94,2.07,2.06,2.89,3.35c0.82,1.29,1.48,2.76,1.96,4.41c0.49,1.65,0.73,3.49,0.73,5.52
		c0,0.59-0.04,1.06-0.11,1.41c-0.07,0.35-0.21,0.62-0.42,0.82c-0.2,0.19-0.48,0.32-0.83,0.39c-0.35,0.07-0.8,0.1-1.36,0.1h-23.8
		c0.28,1.2,0.73,2.29,1.36,3.28c0.63,0.99,1.38,1.83,2.26,2.52c0.88,0.69,1.86,1.23,2.95,1.6c1.09,0.38,2.24,0.57,3.46,0.57
		c1.16,0,2.16-0.1,2.99-0.3c0.83-0.2,1.55-0.46,2.17-0.79s1.16-0.67,1.63-1.05s0.94-0.73,1.4-1.07
		C425.86,207.27,426.1,207.19,426.34,207.19z M414.05,189.55c-1,0.38-1.91,0.9-2.73,1.56c-0.82,0.66-1.54,1.44-2.16,2.33
		s-1.1,1.84-1.45,2.85h18.96c-0.39-1.07-0.89-2.05-1.51-2.95c-0.62-0.9-1.33-1.67-2.13-2.31c-0.8-0.65-1.69-1.15-2.67-1.51
		c-0.98-0.36-2.02-0.54-3.13-0.54C416.11,188.98,415.05,189.17,414.05,189.55z"/>
	<path style="fill:#231F20;" d="M456.93,193.09c0.91-2.11,2.15-3.95,3.72-5.52s3.41-2.81,5.54-3.72c2.12-0.91,4.38-1.37,6.78-1.37
		c2.42,0,4.7,0.46,6.84,1.37c2.14,0.91,4.01,2.16,5.6,3.74c1.59,1.58,2.85,3.42,3.78,5.54c0.92,2.11,1.38,4.37,1.38,6.77
		s-0.46,4.66-1.38,6.78c-0.92,2.12-2.18,3.97-3.78,5.55c-1.6,1.58-3.46,2.83-5.59,3.75c-2.13,0.92-4.41,1.38-6.82,1.38
		c-2.4,0-4.66-0.46-6.78-1.38c-2.12-0.92-3.97-2.17-5.55-3.75c-1.58-1.58-2.82-3.43-3.74-5.55c-0.91-2.12-1.37-4.38-1.37-6.78
		C455.56,197.47,456.02,195.2,456.93,193.09z M463.87,203.94c0.48,1.26,1.15,2.37,2.02,3.31c0.87,0.94,1.9,1.69,3.11,2.24
		c1.21,0.55,2.54,0.83,4,0.83c1.48,0,2.83-0.28,4.05-0.83c1.23-0.55,2.28-1.3,3.16-2.26c0.88-0.95,1.56-2.06,2.05-3.32
		c0.49-1.26,0.73-2.61,0.73-4.03s-0.25-2.76-0.73-4.01c-0.49-1.25-1.18-2.35-2.06-3.29c-0.88-0.94-1.94-1.68-3.17-2.23
		c-1.23-0.54-2.57-0.82-4.03-0.82c-1.44,0-2.76,0.27-3.97,0.8c-1.21,0.54-2.25,1.27-3.13,2.21c-0.88,0.94-1.55,2.04-2.03,3.29
		c-0.48,1.25-0.72,2.6-0.72,4.04S463.39,202.68,463.87,203.94z"/>
	<path style="fill:#231F20;" d="M498.68,192.8h-4.15c-0.26,0-0.48-0.08-0.66-0.25s-0.28-0.41-0.28-0.72v-4.76
		c0-0.31,0.09-0.55,0.28-0.71c0.18-0.16,0.41-0.24,0.66-0.24h4.15V183c0-1.55,0.22-3.04,0.65-4.48c0.43-1.44,1.11-2.71,2.02-3.82
		c0.91-1.11,2.08-1.99,3.49-2.66c1.41-0.66,3.1-1,5.08-1c0.63,0,1.03,0.11,1.2,0.33c0.17,0.22,0.26,0.55,0.26,1v4.68
		c0,0.44-0.12,0.76-0.35,0.95c-0.23,0.19-0.59,0.29-1.09,0.29c-0.76,0-1.37,0.12-1.84,0.36c-0.47,0.24-0.84,0.6-1.11,1.07
		c-0.27,0.47-0.45,1.06-0.54,1.77c-0.09,0.71-0.14,1.54-0.14,2.48v2.16h4.1c0.63,0,0.94,0.31,0.94,0.94v4.76
		c0,0.65-0.31,0.97-0.94,0.97h-4.1v22.89c0,0.7-0.34,1.05-1.02,1.05h-5.56c-0.7,0-1.05-0.35-1.05-1.05V192.8z"/>
	<path style="fill:#231F20;" d="M566.76,210.04c0,2.69-0.38,5.15-1.13,7.38c-0.76,2.22-1.86,4.12-3.32,5.7
		c-1.46,1.58-3.25,2.8-5.38,3.67s-4.58,1.3-7.35,1.3c-1.09,0-2.19-0.09-3.29-0.28s-2.19-0.46-3.24-0.82s-2.06-0.8-3.02-1.33
		c-0.96-0.53-1.83-1.12-2.6-1.79c-0.37-0.31-0.52-0.6-0.46-0.84c0.06-0.25,0.17-0.48,0.32-0.71l2.21-3.21
		c0.24-0.37,0.55-0.55,0.94-0.55c0.29,0,0.61,0.11,0.94,0.33c1.11,0.77,2.39,1.37,3.86,1.8c1.47,0.42,3.09,0.64,4.88,0.64
		c1.35,0,2.58-0.23,3.71-0.68c1.12-0.45,2.1-1.08,2.92-1.9c0.82-0.81,1.46-1.79,1.91-2.92s0.68-2.38,0.68-3.75v-0.11
		c-1.42,1.51-2.96,2.68-4.62,3.5c-1.66,0.82-3.63,1.23-5.9,1.23c-2.21,0-4.33-0.42-6.35-1.25c-2.02-0.83-3.8-1.99-5.34-3.49
		c-1.54-1.5-2.77-3.28-3.68-5.37c-0.91-2.08-1.37-4.38-1.37-6.89c0-2.36,0.45-4.59,1.36-6.68s2.13-3.93,3.67-5.49
		c1.54-1.57,3.32-2.81,5.34-3.74c2.02-0.92,4.15-1.38,6.38-1.38c2.31,0,4.35,0.43,6.12,1.29c1.77,0.86,3.36,2.05,4.76,3.58
		l0.47-3.13c0.07-0.48,0.2-0.83,0.39-1.04c0.18-0.21,0.49-0.32,0.91-0.32h4.29c0.66,0,1,0.39,1,1.16V210.04z M558.83,195.73
		c-0.51-1.27-1.21-2.38-2.1-3.33s-1.96-1.71-3.18-2.27c-1.23-0.56-2.57-0.84-4.03-0.84c-1.51,0-2.89,0.28-4.12,0.84
		c-1.24,0.56-2.3,1.33-3.18,2.3s-1.57,2.09-2.05,3.36c-0.48,1.27-0.72,2.63-0.72,4.07c0,1.55,0.26,2.97,0.79,4.25
		c0.53,1.28,1.25,2.38,2.16,3.31c0.91,0.92,1.99,1.64,3.24,2.15s2.59,0.76,4.03,0.76c1.44,0,2.77-0.28,3.99-0.83
		s2.27-1.31,3.16-2.27c0.89-0.96,1.57-2.08,2.06-3.35c0.49-1.27,0.73-2.63,0.73-4.07S559.34,197.01,558.83,195.73z"/>
	<path style="fill:#231F20;" d="M574.8,193.09c0.91-2.11,2.15-3.95,3.72-5.52s3.41-2.81,5.54-3.72c2.12-0.91,4.38-1.37,6.78-1.37
		c2.42,0,4.7,0.46,6.84,1.37c2.14,0.91,4.01,2.16,5.6,3.74c1.59,1.58,2.85,3.42,3.78,5.54c0.92,2.11,1.38,4.37,1.38,6.77
		s-0.46,4.66-1.38,6.78c-0.92,2.12-2.18,3.97-3.78,5.55c-1.6,1.58-3.46,2.83-5.59,3.75c-2.13,0.92-4.41,1.38-6.82,1.38
		c-2.4,0-4.66-0.46-6.78-1.38c-2.12-0.92-3.97-2.17-5.55-3.75c-1.58-1.58-2.82-3.43-3.74-5.55c-0.91-2.12-1.37-4.38-1.37-6.78
		C573.43,197.47,573.89,195.2,574.8,193.09z M581.74,203.94c0.48,1.26,1.15,2.37,2.02,3.31c0.87,0.94,1.9,1.69,3.11,2.24
		c1.21,0.55,2.54,0.83,4,0.83c1.48,0,2.83-0.28,4.05-0.83c1.23-0.55,2.28-1.3,3.16-2.26c0.88-0.95,1.56-2.06,2.05-3.32
		c0.49-1.26,0.73-2.61,0.73-4.03s-0.25-2.76-0.73-4.01c-0.49-1.25-1.18-2.35-2.06-3.29c-0.88-0.94-1.94-1.68-3.17-2.23
		c-1.23-0.54-2.57-0.82-4.03-0.82c-1.44,0-2.76,0.27-3.97,0.8c-1.21,0.54-2.25,1.27-3.13,2.21c-0.88,0.94-1.55,2.04-2.03,3.29
		c-0.48,1.25-0.72,2.6-0.72,4.04S581.26,202.68,581.74,203.94z"/>
	<path style="fill:#231F20;" d="M614.39,174.15c0-0.37,0.11-0.66,0.32-0.86c0.21-0.2,0.48-0.3,0.82-0.3h5.4
		c0.35,0,0.63,0.11,0.83,0.33c0.2,0.22,0.3,0.5,0.3,0.83v41.43c0,0.35-0.1,0.63-0.29,0.84c-0.19,0.21-0.48,0.32-0.84,0.32h-5.4
		c-0.76,0-1.13-0.39-1.13-1.16V174.15z"/>
	<path style="fill:#231F20;" d="M631.63,192.8h-4.15c-0.26,0-0.48-0.08-0.66-0.25s-0.28-0.41-0.28-0.72v-4.76
		c0-0.31,0.09-0.55,0.28-0.71c0.18-0.16,0.41-0.24,0.66-0.24h4.15V183c0-1.55,0.22-3.04,0.65-4.48c0.43-1.44,1.11-2.71,2.02-3.82
		c0.91-1.11,2.08-1.99,3.49-2.66c1.41-0.66,3.1-1,5.08-1c0.63,0,1.03,0.11,1.2,0.33c0.17,0.22,0.26,0.55,0.26,1v4.68
		c0,0.44-0.12,0.76-0.35,0.95c-0.23,0.19-0.59,0.29-1.09,0.29c-0.76,0-1.37,0.12-1.84,0.36c-0.47,0.24-0.84,0.6-1.11,1.07
		c-0.27,0.47-0.45,1.06-0.54,1.77c-0.09,0.71-0.14,1.54-0.14,2.48v2.16h4.1c0.63,0,0.94,0.31,0.94,0.94v4.76
		c0,0.65-0.31,0.97-0.94,0.97h-4.1v22.89c0,0.7-0.34,1.05-1.02,1.05h-5.56c-0.7,0-1.05-0.35-1.05-1.05V192.8z"/>
</g>
<g>
	<path style="fill:#231F20;" d="M717.48,52.97c1.55-0.38,2.95-1.04,4.2-1.97V39.31c0-1.03,0.5-1.55,1.51-1.55h6.8
		c0.34,0,0.68,0.11,0.99,0.32c0.32,0.21,0.48,0.62,0.48,1.23v17.3c0,0.34-0.06,0.66-0.18,0.93s-0.33,0.52-0.62,0.74
		c-1.14,0.8-2.38,1.53-3.72,2.21s-2.76,1.27-4.25,1.77c-1.5,0.5-3.06,0.9-4.69,1.19c-1.63,0.29-3.31,0.44-5.03,0.44
		c-4.06,0-7.86-0.76-11.41-2.29c-3.55-1.52-6.65-3.61-9.3-6.26c-2.65-2.65-4.75-5.75-6.28-9.29c-1.54-3.54-2.31-7.34-2.31-11.39
		c0-4.03,0.76-7.81,2.29-11.33c1.52-3.53,3.6-6.6,6.24-9.23c2.64-2.62,5.73-4.69,9.26-6.2s7.34-2.27,11.39-2.27
		c3.47,0,6.58,0.49,9.33,1.47s5.32,2.39,7.73,4.21c0.45,0.34,0.69,0.69,0.72,1.03c0.03,0.35-0.07,0.66-0.28,0.96l-4.53,6.48
		c-0.32,0.4-0.69,0.6-1.11,0.6c-0.29,0-0.62-0.12-0.99-0.36c-1.51-1.11-3.15-2.01-4.91-2.7c-1.76-0.69-3.71-1.03-5.83-1.03
		c-2.65,0-5.11,0.48-7.38,1.43c-2.27,0.95-4.22,2.25-5.87,3.9c-1.64,1.64-2.94,3.59-3.88,5.83c-0.94,2.24-1.41,4.65-1.41,7.22
		s0.48,5.02,1.45,7.34c0.97,2.32,2.29,4.34,3.96,6.06c1.67,1.72,3.63,3.08,5.89,4.08c2.25,0.99,4.67,1.48,7.24,1.45
		C714.43,53.56,715.93,53.35,717.48,52.97z"/>
	<path style="fill:#231F20;" d="M743.29,23.42c1.52-3.54,3.61-6.63,6.26-9.27c2.65-2.64,5.75-4.72,9.29-6.24
		c3.54-1.52,7.32-2.29,11.35-2.29s7.81,0.76,11.35,2.29c3.54,1.53,6.62,3.61,9.25,6.24c2.62,2.64,4.69,5.73,6.2,9.27
		c1.51,3.54,2.27,7.32,2.27,11.35c0,4.03-0.75,7.81-2.27,11.35c-1.51,3.54-3.58,6.62-6.2,9.25c-2.62,2.62-5.71,4.7-9.25,6.22
		c-3.54,1.53-7.32,2.29-11.35,2.29s-7.81-0.76-11.35-2.29c-3.54-1.52-6.63-3.6-9.29-6.22c-2.65-2.62-4.74-5.71-6.26-9.25
		c-1.52-3.54-2.29-7.32-2.29-11.35C741,30.74,741.77,26.96,743.29,23.42z M753.55,41.99c0.92,2.24,2.18,4.19,3.8,5.84
		c1.62,1.66,3.52,2.96,5.71,3.92c2.19,0.96,4.57,1.43,7.14,1.43s4.95-0.48,7.14-1.43c2.19-0.95,4.08-2.26,5.69-3.92
		c1.6-1.66,2.86-3.6,3.76-5.84s1.35-4.65,1.35-7.22c0-2.57-0.45-4.98-1.35-7.22s-2.15-4.2-3.76-5.87c-1.6-1.67-3.5-2.98-5.69-3.94
		c-2.19-0.95-4.57-1.43-7.14-1.43s-4.95,0.48-7.14,1.43c-2.19,0.96-4.09,2.27-5.71,3.94c-1.62,1.67-2.88,3.63-3.8,5.87
		c-0.91,2.24-1.37,4.65-1.37,7.22C752.18,37.35,752.63,39.75,753.55,41.99z"/>
</g>
<g>
</g>
<g>
</g>
<g>
</g>
<g>
</g>
<g>
</g>
<g>
</g>
<g>
</g>
<g>
</g>
<g>
</g>
<g>
</g>
<g>
</g>
<g>
</g>
<g>
</g>
<g>
</g>
<g>
</g>
</svg>
